<?xml version="1.0" encoding="UTF-8"?>
<!DOCTYPE svg PUBLIC "-//W3C//DTD SVG 1.1//EN" "http://www.w3.org/Graphics/SVG/1.1/DTD/svg11.dtd">
<!-- Creator: CorelDRAW -->
<svg xmlns="http://www.w3.org/2000/svg" xml:space="preserve" width="9.57997in" height="0.821197in" style="shape-rendering:geometricPrecision; text-rendering:geometricPrecision; image-rendering:optimizeQuality; fill-rule:evenodd; clip-rule:evenodd"
viewBox="0 0 9.40313 0.806038"
 xmlns:xlink="http://www.w3.org/1999/xlink">
 <defs>
  <style type="text/css">
   <![CDATA[
    .fil1 {fill:white}
    .fil0 {fill:white;fill-rule:nonzero}
   ]]>
  </style>
 </defs>
 <g id="Layer_x0020_1">
  <metadata id="CorelCorpID_0Corel-Layer"/>
  <path class="fil0" d="M1.7003 0.00963378l0.133462 0 -0.291568 0.333287 0.343002 0.453487 -0.268587 0 -0.210355 -0.275021 -0.240729 0.275021 -0.133536 0 0.311855 -0.356458 -0.32904 -0.430317 0.275388 0 0.190144 0.251406 0.219962 -0.251406zm-0.0468512 0.706887l0.073971 0 -0.477388 -0.631177 -0.0793695 0 0.482786 0.631177z"/>
  <path class="fil1" d="M2.52907 0.367958c0,0.0230121 0.0321474,0.0264282 0.0487292,0.0330246 0.01897,0.0075509 0.0414952,0.012961 0.061953,0.0198008 0.0186029,0.00621771 0.111629,0.0393659 0.124142,0.0393659l0.00174281 0c0.00993906,0 0.229866,-0.142922 0.259131,-0.16008 0.0264243,-0.0154921 0.15278,-0.0983511 0.220893,-0.136828 0.0210529,-0.012876 0.0365527,-0.0212113 0.0418121,-0.0214393 -1.1593e-005,0.000537142 -0.000131387,0.0011593 -0.000262775,0.00179305 8.1151e-005,-3.86433e-006 0.000185488,-2.70503e-005 0.000262775,-2.70503e-005l-0.018742 0.0296781 -0.362884 0.36426 0.173934 0.119899c0.0307485,0.0204964 0.0621578,0.0430873 0.0914494,0.0651024 0.0146188,0.0109902 0.0305282,0.0221194 0.0444514,0.0338206 0.0140584,0.0118171 0.0277459,0.0273595 0.0526554,0.0273595 0.0376463,0 0.042326,-0.0358687 0.0501088,-0.0646928 0.00832764,-0.0308335 0.0150941,-0.0629886 0.0229735,-0.0935709 0.0160331,-0.0622273 0.0296124,-0.125942 0.0448224,-0.188266 0.0153337,-0.0628379 0.0281478,-0.126302 0.0438524,-0.189232l0.00110133 -0.00440534c0.00107815,-0.0045174 0.00227223,-0.00951012 0.00352814,-0.0148004l-0.000815374 0.0039764c0.0063916,-0.0255703 0.0147463,-0.0599358 0.0170378,-0.0804631 0.00366725,-0.0328584 0.0156892,-0.0610951 0.0156892,-0.100855l0 -0.0156544c0,-0.0174977 -0.00414256,-0.014955 -0.0104955,-0.0239666l-0.0155964 -0.00212538c-0.0165664,-0.00248477 -0.422773,0.148317 -0.46862,0.166282 -0.0770702,0.0301998 -0.153847,0.0561565 -0.230391,0.0861862 -0.0357992,0.014043 -0.0792343,0.0281053 -0.113897,0.0443934 -0.0255626,0.0120142 -0.0985636,0.0297708 -0.0985636,0.0614661zm0.31832 0.363591c0.011535,0.0285458 0.0190241,0.0840222 0.0584596,0.058193 0.0152448,-0.00998157 0.0527134,-0.0503677 0.0672432,-0.065713l0.0822098 -0.0834966 -0.149457 -0.103031c0.00355519,-0.00762433 0.130282,-0.131712 0.238391,-0.239283 0.073971,-0.0736039 0.14286,-0.138772 0.143235,-0.156417l-0.497668 0.41103 0.0575863 0.178718z"/>
  <path class="fil1" d="M4.76047 0.193294c0,0.0259529 -0.0211379,0.0470907 -0.0471487,0.0470907 -0.0260108,0 -0.0471448,-0.0211379 -0.0471448,-0.0470907 0,-0.0260688 0.021134,-0.0472067 0.0471448,-0.0472067 0.0260108,0 0.0471487,0.0211379 0.0471487,0.0472067zm-0.256928 0.00793347c-0.111467,0 -0.201792,0.0903829 -0.201792,0.20185 0,0.111405 0.0903249,0.201795 0.201792,0.201795 0.111409,0 0.201792,-0.0903906 0.201792,-0.201795 0,-0.111467 -0.0903829,-0.20185 -0.201792,-0.20185zm0 0.332862c-0.0723673,0 -0.131074,-0.058649 -0.131074,-0.131012 0,-0.0724253 0.0587069,-0.131132 0.131074,-0.131132 0.0723635,0 0.13107,0.0587069 0.13107,0.131132 0,0.0723635 -0.0587069,0.131012 -0.13107,0.131012zm0 -0.453224c0.104948,0 0.11736,0.000340061 0.158782,0.0022645 0.0383651,0.00170031 0.059217,0.0081035 0.0730436,0.0134286 0.0183594,0.00719925 0.0314518,0.0156428 0.0452243,0.0294655 0.0137648,0.0137184 0.0222083,0.0268069 0.0294655,0.0451663 0.00526708,0.0138845 0.0116741,0.0346785 0.0133706,0.0730475 0.0019283,0.0414218 0.00232246,0.0538301 0.00232246,0.158839 0,0.104948 -0.000394162,0.117302 -0.00232246,0.158782 -0.00169644,0.0383651 -0.0081035,0.0591629 -0.0133706,0.0730436 -0.00725722,0.0183015 -0.0157008,0.0313938 -0.0294655,0.0451663 -0.0137725,0.0137686 -0.0268648,0.0222083 -0.0452243,0.0294655 -0.0138266,0.00527095 -0.0346785,0.0117282 -0.0730436,0.0133745 -0.0414218,0.00192444 -0.053834,0.00232633 -0.158782,0.00232633 -0.104951,0 -0.117364,-0.000401891 -0.158839,-0.00232633 -0.038369,-0.00164621 -0.0591591,-0.0081035 -0.0729895,-0.0133745 -0.0183594,-0.00725722 -0.0314479,-0.0156969 -0.0452204,-0.0294655 -0.0137686,-0.0137725 -0.0222122,-0.0268648 -0.0294694,-0.0451663 -0.00526708,-0.0138807 -0.0117282,-0.0346785 -0.0133706,-0.0730436 -0.0019283,-0.0414797 -0.00232246,-0.053834 -0.00232246,-0.158782 0,-0.105009 0.000394162,-0.117418 0.00232246,-0.158839 0.00164234,-0.038369 0.0081035,-0.0591629 0.0133706,-0.0730475 0.00725722,-0.0183594 0.0157008,-0.0314479 0.0294694,-0.0451663 0.0137725,-0.0138227 0.026861,-0.0222663 0.0452204,-0.0294655 0.0138304,-0.00532505 0.0346205,-0.0117282 0.0729895,-0.0134286 0.0414759,-0.00192444 0.0538881,-0.0022645 0.158839,-0.0022645zm0 -0.070895c-0.106764,0 -0.120134,0.000398026 -0.16207,0.00238429 -0.0418237,0.00192444 -0.070439,0.00849767 -0.0954297,0.0182435 -0.0258408,0.0100859 -0.0477709,0.0235183 -0.069585,0.0453363 -0.0218219,0.0218721 -0.0352504,0.0438061 -0.0453363,0.069585 -0.00974585,0.0250486 -0.0163191,0.053664 -0.0182435,0.0954297 -0.00199013,0.0419357 -0.00238429,0.0553063 -0.00238429,0.162128 0,0.106702 0.000394162,0.120076 0.00238429,0.162012 0.00192444,0.0418198 0.00849767,0.0704352 0.0182435,0.0954838 0.0100859,0.0257867 0.0235145,0.0477129 0.0453363,0.0695348 0.0218142,0.0218142 0.0437442,0.0352427 0.069585,0.0453286 0.0249906,0.00974585 0.053606,0.0163191 0.0954297,0.0182512 0.0419357,0.0019824 0.0553063,0.00237656 0.16207,0.00237656 0.10676,0 0.120134,-0.000394162 0.162066,-0.00237656 0.0418237,-0.00193217 0.0703811,-0.00850539 0.0954297,-0.0182512 0.0257867,-0.0100859 0.0477709,-0.0235145 0.069585,-0.0453286 0.0218219,-0.0218219 0.0352504,-0.0437481 0.0453363,-0.0695348 0.00974585,-0.0250486 0.0163191,-0.053664 0.0182512,-0.0954838 0.0019824,-0.0419357 0.00237656,-0.0553102 0.00237656,-0.162012 0,-0.106822 -0.000394162,-0.120192 -0.00237656,-0.162128 -0.00193217,-0.0417657 -0.00850539,-0.0703811 -0.0182512,-0.0954297 -0.0100859,-0.025779 -0.0235145,-0.0477129 -0.0453363,-0.069585 -0.0218142,-0.021818 -0.0437983,-0.0352504 -0.069585,-0.0453363 -0.0250486,-0.00974585 -0.053606,-0.0163191 -0.0954297,-0.0182435 -0.0419319,-0.00198627 -0.0553063,-0.00238429 -0.162066,-0.00238429z"/>
  <path class="fil1" d="M7.31847 0.568814l0.291769 -0.165629 -0.291769 -0.165958 0 0.331587zm0.64891 -0.435928c-0.0126634,-0.0485244 -0.0504566,-0.0866267 -0.0985443,-0.099294 -0.0872682,-0.0236188 -0.436152,-0.0236188 -0.436152,-0.0236188 0,0 -0.348551,0 -0.435819,0.0236188 -0.0480955,0.0126673 -0.085877,0.0506653 -0.0986525,0.099294 -0.0232981,0.0874846 -0.0232981,0.270298 -0.0232981,0.270298 0,0 0,0.182594 0.0232981,0.270078 0.0127755,0.0486288 0.0505571,0.0866267 0.0986525,0.099294 0.0872682,0.0235106 0.435819,0.0235106 0.435819,0.0235106 0,0 0.348883,0 0.436152,-0.0235106 0.0480877,-0.0126673 0.0858809,-0.0506653 0.0985443,-0.099294 0.0233985,-0.0874846 0.0233985,-0.270078 0.0233985,-0.270078 0,0 0,-0.182814 -0.0233985,-0.270298z"/>
  <path class="fil0" d="M8.72032 0.178208c0.0172272,-0.000173895 0.032244,-0.00427009 0.0450542,-0.0121224 0.0128064,-0.00784846 0.0226682,-0.0187768 0.0297399,-0.0324295 0.00721084,-0.0138266 0.0107428,-0.0297013 0.0108897,-0.047624 -0.000146845,-0.0165625 -0.00367884,-0.0312393 -0.0108897,-0.0442157 -0.00707173,-0.0128025 -0.0169335,-0.023043 -0.0297399,-0.0303814 -0.0128103,-0.00751226 -0.0278271,-0.0112645 -0.0450542,-0.0114346 -0.0172233,0.000170031 -0.0322401,0.00409619 -0.0450465,0.0119446 -0.0126596,0.00785232 -0.0226759,0.0184367 -0.0297399,0.0317532 -0.00721471,0.0133126 -0.0107467,0.0285072 -0.0108936,0.0454059 0.000146845,0.0168987 0.00367884,0.0320894 0.0108936,0.045402 0.007064,0.0133204 0.0170803,0.0239009 0.0297399,0.0317494 0.0128064,0.00768229 0.0278232,0.0117785 0.0450465,0.0119524zm-0.0688933 0.62783l0.13779 0 0 -0.551015 -0.13779 0 0 0.551015zm0.554717 -0.559211c-0.0323831,0 -0.0621269,0.00631432 -0.0889221,0.0186068 -0.0267914,0.0124625 -0.0496064,0.0303852 -0.0683059,0.0541122l0 -0.0645227 -0.131611 0 0 0.551015 0.13779 0 0 -0.272439c0.000154573,-0.0337974 0.00515888,-0.0616206 0.0148699,-0.0836396 0.00971879,-0.0218489 0.0229696,-0.0382376 0.0400461,-0.048992 0.0170803,-0.0105844 0.0368039,-0.0158747 0.0590354,-0.0158747 0.030621,-0.000170031 0.0543248,0.0104105 0.0709569,0.0315793 0.0167828,0.0211688 0.0251761,0.0541161 0.025323,0.0984941l0 0.290872 0.137798 0 0 -0.315453c-0.000146845,-0.0419937 -0.00515502,-0.0783493 -0.0150168,-0.108908 -0.00986177,-0.0307253 -0.0236999,-0.0559864 -0.0413677,-0.0759573 -0.0178146,-0.0199709 -0.0385699,-0.0348215 -0.0624206,-0.0443819 -0.0239975,-0.00973039 -0.0499078,-0.0145106 -0.0781754,-0.0145106z"/>
  <path class="fil0" d="M0.212612 0.220491c0,-0.0278 0.00557623,-0.0484278 0.0164427,-0.0617211 0.0110056,-0.0134633 0.0268339,-0.0202761 0.0477979,-0.0201061 0.0108549,0 0.0212616,0.00175054 0.0309147,0.0052439 0.00964924,0.00349722 0.0183981,0.00839719 0.0260804,0.0146883l0.0371015 -0.118542c-0.00889956,-0.00699444 -0.0191555,-0.0127639 -0.0307639,-0.0173083 -0.0116162,-0.00437442 -0.0239782,-0.00769002 -0.0370976,-0.00996225 -0.0131194,-0.0021022 -0.0263857,-0.00314943 -0.0398103,-0.00314943 -0.04056,0.000173895 -0.0746434,0.00891888 -0.102687,0.0262234 -0.0278966,0.0171344 -0.0491582,0.0414372 -0.0636378,0.0727345 -0.0144719,0.0312972 -0.0217098,0.0683639 -0.0218567,0.110848l0 0.0251761 -0.0750956 0 0 0.125884 0.0750956 0 0 0.425911 0.141137 0 0 -0.425911 0.121236 0 0 -0.125884 -0.124857 0 0 -0.024125z"/>
  <path class="fil0" d="M6.23105 0.241355l0 0.0931961c-0.0439529,1.1593e-005 -0.086646,-0.00859427 -0.126916,-0.0255819 -0.0258988,-0.0109361 -0.050016,-0.0250177 -0.0720814,-0.0420323l0.000660801 0.286853c-0.000274368,0.0645962 -0.0258292,0.125289 -0.0720814,0.171001 -0.0376502,0.0372097 -0.085336,0.060871 -0.137037,0.0685417 -0.0121495,0.00179305 -0.0245076,0.00271663 -0.0370164,0.00271663 -0.0553411,0 -0.107881,-0.0179266 -0.150852,-0.0509976 -0.00808418,-0.00623317 -0.0158206,-0.0129764 -0.0231821,-0.0202452 -0.0501281,-0.0495485 -0.0759728,-0.116695 -0.0716293,-0.187327 0.00332333,-0.0537683 0.0248515,-0.105056 0.0607357,-0.145241 0.047481,-0.0531925 0.113909,-0.082716 0.184931,-0.082716 0.0124934,0 0.0248631,0.000939033 0.0370126,0.00272822l0 0.034466 0 0.0958548c-0.0115157,-0.00379091 -0.0238159,-0.00588924 -0.0366261,-0.00588924 -0.064886,0 -0.117387,0.0529413 -0.116421,0.117881 0.000618293,0.0415532 0.0233058,0.0778624 0.0567864,0.0978874 0.0157356,0.00940578 0.0338284,0.0152371 0.0531346,0.0162998 0.0151289,0.000826967 0.0296626,-0.00128296 0.0431105,-0.00572308 0.0463643,-0.0153221 0.0798023,-0.0588576 0.0798023,-0.110215l0.000154573 -0.1921 0 -0.350723 0.12835 0c0.000123659,0.0127175 0.00142207,0.0251259 0.00380637,0.0371517 0.00968015,0.0486674 0.0371246,0.090893 0.0752965,0.119674 0.0332912,0.0251104 0.0747439,0.039992 0.119674,0.039992 2.70503e-005,0 0.000401891,0 0.000370976,-2.70503e-005l0 0.0345742 1.54573e-005 0z"/>
 </g>
</svg>
